# Blender v3.2.2 OBJ File: 'piece.blend'
# www.blender.org
mtllib piece.mtl
o Cube
v 0.267496 0.900000 -1.000000
v 0.267496 1.000000 -0.900000
v 0.297218 0.900000 -0.900000
v 0.267496 0.970711 -0.970711
v 0.284656 0.957735 -0.957735
v 0.288512 0.970711 -0.900000
v 0.288512 0.900000 -0.970711
v 0.267496 -0.900000 -1.000000
v 0.297218 -0.900000 -0.900000
v 0.267496 -1.000000 -0.900000
v 0.288512 -0.900000 -0.970711
v 0.284656 -0.957735 -0.957735
v 0.288512 -0.970711 -0.900000
v 0.267496 -0.970711 -0.970711
v 0.267496 0.900000 1.000000
v 0.297218 0.900000 0.900000
v 0.267496 1.000000 0.900000
v 0.288512 0.900000 0.970711
v 0.284656 0.957735 0.957735
v 0.288512 0.970711 0.900000
v 0.267496 0.970711 0.970711
v 0.297218 -0.900000 0.900000
v 0.267496 -0.900000 1.000000
v 0.267496 -1.000000 0.900000
v 0.288512 -0.900000 0.970711
v 0.284656 -0.957735 0.957735
v 0.267496 -0.970711 0.970711
v 0.288512 -0.970711 0.900000
v -0.267496 0.900000 -1.000000
v -0.297218 0.900000 -0.900000
v -0.267496 1.000000 -0.900000
v -0.288512 0.900000 -0.970711
v -0.284656 0.957735 -0.957735
v -0.288512 0.970711 -0.900000
v -0.267496 0.970711 -0.970711
v -0.297218 -0.900000 -0.900000
v -0.267496 -0.900000 -1.000000
v -0.267496 -1.000000 -0.900000
v -0.288512 -0.900000 -0.970711
v -0.284656 -0.957735 -0.957735
v -0.267496 -0.970711 -0.970711
v -0.288512 -0.970711 -0.900000
v -0.297218 0.900000 0.900000
v -0.267496 0.900000 1.000000
v -0.267496 1.000000 0.900000
v -0.288512 0.900000 0.970711
v -0.284656 0.957735 0.957735
v -0.267496 0.970711 0.970711
v -0.288512 0.970711 0.900000
v -0.267496 -1.000000 0.900000
v -0.267496 -0.900000 1.000000
v -0.297218 -0.900000 0.900000
v -0.267496 -0.970711 0.970711
v -0.284656 -0.957735 0.957735
v -0.288512 -0.900000 0.970711
v -0.288512 -0.970711 0.900000
v -0.171323 -0.900000 -1.000000
v -0.171323 -1.000000 -0.900000
v -0.171323 -0.970711 -0.970711
v -0.171323 0.900000 1.000000
v -0.171323 1.000000 0.900000
v -0.171323 0.970711 0.970711
v -0.171323 -1.000000 0.900000
v -0.171323 -0.900000 1.000000
v -0.171323 -0.970711 0.970711
v -0.171323 1.000000 -0.900000
v -0.171323 0.900000 -1.000000
v -0.171323 0.970711 -0.970711
v 0.179100 -0.900000 1.000000
v 0.179100 -1.000000 0.900000
v 0.179100 -0.970711 0.970711
v 0.179100 0.900000 -1.000000
v 0.179100 1.000000 -0.900000
v 0.179100 0.970711 -0.970711
v 0.179100 -0.900000 -1.000000
v 0.179100 -1.000000 -0.900000
v 0.179100 -0.970711 -0.970711
v 0.179100 0.900000 1.000000
v 0.179100 1.000000 0.900000
v 0.179100 0.970711 0.970711
vt 0.154510 0.512500
vt 0.250000 0.512500
vt 0.250000 0.737500
vt 0.154510 0.737500
vt 0.750000 0.512500
vt 0.845490 0.512500
vt 0.845490 0.737500
vt 0.750000 0.737500
vt 0.387500 0.765727
vt 0.612500 0.765727
vt 0.612500 0.812500
vt 0.387500 0.812500
vt 0.640727 0.512500
vt 0.687500 0.512500
vt 0.687500 0.737500
vt 0.640727 0.737500
vt 0.387500 0.512500
vt 0.612500 0.512500
vt 0.612500 0.737500
vt 0.387500 0.737500
vt 0.387500 0.012500
vt 0.612500 0.012500
vt 0.612500 0.237500
vt 0.387500 0.237500
vt 0.387500 0.875000
vt 0.612500 0.875000
vt 0.612500 0.970490
vt 0.387500 0.970490
vt 0.312500 0.512500
vt 0.359273 0.512500
vt 0.359273 0.737500
vt 0.312500 0.737500
vt 0.387500 0.279510
vt 0.612500 0.279510
vt 0.612500 0.375000
vt 0.387500 0.375000
vt 0.612500 0.484273
vt 0.625000 0.484273
vt 0.623239 0.499545
vt 0.612500 0.500000
vt 0.625000 0.512500
vt 0.640727 0.500000
vt 0.387500 0.484273
vt 0.387500 0.500000
vt 0.374545 0.501761
vt 0.375000 0.484273
vt 0.375000 0.512500
vt 0.359273 0.500000
vt 0.612500 0.750000
vt 0.625455 0.748239
vt 0.625000 0.765727
vt 0.625000 0.737500
vt 0.640727 0.750000
vt 0.387500 0.750000
vt 0.376761 0.750455
vt 0.375000 0.737500
vt 0.375000 0.765727
vt 0.359273 0.750000
vt 0.612500 0.250000
vt 0.619717 0.250000
vt 0.625000 0.279510
vt 0.625000 0.237500
vt 0.625000 0.244717
vt 0.845490 0.500000
vt 0.862527 0.500000
vt 0.875000 0.512500
vt 0.387500 0.250000
vt 0.380283 0.250000
vt 0.375000 0.237500
vt 0.375000 0.279510
vt 0.375000 0.262473
vt 0.125000 0.512500
vt 0.125000 0.505283
vt 0.154510 0.500000
vt 0.612500 0.000000
vt 0.619717 0.000000
vt 0.625000 0.012500
vt 0.625000 0.970490
vt 0.625000 0.987527
vt 0.612500 1.000000
vt 0.875000 0.737500
vt 0.875000 0.744717
vt 0.845490 0.750000
vt 0.154510 0.750000
vt 0.137473 0.750000
vt 0.125000 0.737500
vt 0.387500 1.000000
vt 0.380283 1.000000
vt 0.375000 0.970490
vt 0.375000 0.012500
vt 0.375000 0.005283
vt 0.387500 0.000000
vt 0.250000 0.500000
vt 0.375000 0.375000
vt 0.750000 0.750000
vt 0.625000 0.875000
vt 0.312500 0.750000
vt 0.375000 0.812500
vt 0.687500 0.500000
vt 0.625000 0.437500
vt 0.612500 0.437500
vt 0.250000 0.750000
vt 0.375000 0.875000
vt 0.750000 0.500000
vt 0.625000 0.375000
vt 0.312500 0.500000
vt 0.375000 0.437500
vt 0.387500 0.437500
vt 0.687500 0.750000
vt 0.625000 0.812500
vn 0.0000 -1.0000 0.0000
vn 0.0000 1.0000 0.0000
vn 0.0000 0.0000 1.0000
vn 1.0000 0.0000 0.0000
vn -1.0000 0.0000 0.0000
vn 0.0000 0.0000 -1.0000
vn 0.7564 0.2248 -0.6142
vn 0.7564 0.6142 -0.2248
vn 0.9884 0.1075 -0.1075
vn 0.7564 -0.2248 -0.6142
vn 0.9884 -0.1075 -0.1075
vn 0.7564 -0.6142 -0.2248
vn 0.7564 0.2248 0.6142
vn 0.9884 0.1075 0.1075
vn 0.7564 0.6142 0.2248
vn 0.9884 -0.1075 0.1075
vn 0.7564 -0.2248 0.6142
vn 0.7564 -0.6142 0.2248
vn -0.7564 0.2248 -0.6142
vn -0.9884 0.1075 -0.1075
vn -0.7564 0.6142 -0.2248
vn -0.9884 -0.1075 -0.1075
vn -0.7564 -0.2248 -0.6142
vn -0.7564 -0.6142 -0.2248
vn -0.9884 0.1075 0.1075
vn -0.7564 0.2248 0.6142
vn -0.7564 0.6142 0.2248
vn -0.7564 -0.6142 0.2248
vn -0.7564 -0.2248 0.6142
vn -0.9884 -0.1075 0.1075
vn -0.8125 -0.5830 0.0000
vn -0.9925 -0.1222 0.0000
vn 0.0000 -0.9239 -0.3827
vn 0.0000 -0.3827 -0.9239
vn 0.9925 0.0000 -0.1222
vn 0.8125 0.0000 -0.5830
vn -0.8125 0.0000 0.5830
vn -0.9925 0.0000 0.1222
vn 0.8125 0.0000 0.5830
vn 0.9925 0.0000 0.1222
vn -0.8125 0.0000 -0.5830
vn -0.9925 0.0000 -0.1222
vn 0.0000 0.9239 0.3827
vn 0.0000 0.3827 0.9239
vn 0.8125 0.5830 0.0000
vn 0.9925 0.1222 0.0000
vn 0.0000 -0.9239 0.3827
vn 0.0000 -0.3827 0.9239
vn -0.8125 0.5830 0.0000
vn -0.9925 0.1222 0.0000
vn 0.0000 0.9239 -0.3827
vn 0.0000 0.3827 -0.9239
vn 0.8125 -0.5830 0.0000
vn 0.9925 -0.1222 0.0000
usemtl Face_Material
s off
f 38/1/1 58/2/1 63/3/1 50/4/1
f 66/5/2 31/6/2 45/7/2 61/8/2
f 23/9/3 15/10/3 78/11/3 69/12/3
f 2/13/2 73/14/2 79/15/2 17/16/2
f 9/17/4 3/18/4 16/19/4 22/20/4
f 52/21/5 43/22/5 30/23/5 36/24/5
f 64/25/3 60/26/3 44/27/3 51/28/3
f 76/29/1 10/30/1 24/31/1 70/32/1
f 37/33/6 29/34/6 67/35/6 57/36/6
f 1/37/7 4/38/7 5/39/7 7/40/7
f 2/13/8 6/41/8 5/39/8 4/42/8
f 3/18/9 7/40/9 5/39/9 6/41/9
f 8/43/10 11/44/10 12/45/10 14/46/10
f 9/17/11 13/47/11 12/45/11 11/44/11
f 10/30/12 14/48/12 12/45/12 13/47/12
f 15/10/13 18/49/13 19/50/13 21/51/13
f 16/19/14 20/52/14 19/50/14 18/49/14
f 17/16/15 21/53/15 19/50/15 20/52/15
f 22/20/16 25/54/16 26/55/16 28/56/16
f 23/9/17 27/57/17 26/55/17 25/54/17
f 24/31/18 28/56/18 26/55/18 27/58/18
f 29/34/19 32/59/19 33/60/19 35/61/19
f 30/23/20 34/62/20 33/63/20 32/59/20
f 31/6/21 35/64/21 33/65/21 34/66/21
f 36/24/22 39/67/22 40/68/22 42/69/22
f 37/33/23 41/70/23 40/71/23 39/67/23
f 38/1/24 42/72/24 40/73/24 41/74/24
f 43/22/25 46/75/25 47/76/25 49/77/25
f 44/27/26 48/78/26 47/79/26 46/80/26
f 45/7/27 49/81/27 47/82/27 48/83/27
f 50/4/28 53/84/28 54/85/28 56/86/28
f 51/28/29 55/87/29 54/88/29 53/89/29
f 52/21/30 56/90/30 54/91/30 55/92/30
f 38/1/31 50/4/31 56/86/31 42/72/31
f 42/69/32 56/90/32 52/21/32 36/24/32
f 58/2/33 38/1/33 41/74/33 59/93/33
f 59/94/34 41/70/34 37/33/34 57/36/34
f 3/18/35 9/17/35 11/44/35 7/40/35
f 7/40/36 11/44/36 8/43/36 1/37/36
f 51/28/37 44/27/37 46/80/37 55/87/37
f 55/92/38 46/75/38 43/22/38 52/21/38
f 15/10/39 23/9/39 25/54/39 18/49/39
f 18/49/40 25/54/40 22/20/40 16/19/40
f 29/34/41 37/33/41 39/67/41 32/59/41
f 32/59/42 39/67/42 36/24/42 30/23/42
f 61/8/43 45/7/43 48/83/43 62/95/43
f 62/96/44 48/78/44 44/27/44 60/26/44
f 2/13/45 17/16/45 20/52/45 6/41/45
f 6/41/46 20/52/46 16/19/46 3/18/46
f 70/32/47 24/31/47 27/58/47 71/97/47
f 71/98/48 27/57/48 23/9/48 69/12/48
f 45/7/49 31/6/49 34/66/49 49/81/49
f 49/77/50 34/62/50 30/23/50 43/22/50
f 73/14/51 2/13/51 4/42/51 74/99/51
f 74/100/52 4/38/52 1/37/52 72/101/52
f 24/31/53 10/30/53 13/47/53 28/56/53
f 28/56/54 13/47/54 9/17/54 22/20/54
f 50/4/47 63/3/47 65/102/47 53/84/47
f 53/89/48 65/103/48 64/25/48 51/28/48
f 31/6/51 66/5/51 68/104/51 35/64/51
f 35/61/52 68/105/52 67/35/52 29/34/52
f 10/30/33 76/29/33 77/106/33 14/48/33
f 14/46/34 77/107/34 75/108/34 8/43/34
f 17/16/43 79/15/43 80/109/43 21/53/43
f 21/51/44 80/110/44 78/11/44 15/10/44
f 75/108/6 72/101/6 1/37/6 8/43/6
usemtl Core_Material
f 58/2/1 76/29/1 70/32/1 63/3/1
f 69/12/3 78/11/3 60/26/3 64/25/3
f 73/14/2 66/5/2 61/8/2 79/15/2
f 57/36/6 67/35/6 72/101/6 75/108/6
f 76/29/33 58/2/33 59/93/33 77/106/33
f 77/107/34 59/94/34 57/36/34 75/108/34
f 79/15/43 61/8/43 62/95/43 80/109/43
f 80/110/44 62/96/44 60/26/44 78/11/44
f 63/3/47 70/32/47 71/97/47 65/102/47
f 65/103/48 71/98/48 69/12/48 64/25/48
f 66/5/51 73/14/51 74/99/51 68/104/51
f 68/105/52 74/100/52 72/101/52 67/35/52
